# xmcd CD database file
#
# Track frame offsets:
#	182
#	18197
#	41020
#	57787
#	81232
#	106600
#	120232
#	136572
#	158452
#	176475
#	201737
#	218285
#	234192
#	268700
#	294972
#	315382
#	340097
#
# Disc length: 4718 seconds
#
# Revision: 0
# Processed by: cddbd v1.5.2PL0 Copyright (c) Steve Scherf et al.
# Submitted via: CDex 1.51
#
DISCID=ce126c11
DTITLE=Senior Dixieland Praha and Markéta Limonová - Live Concert in Jazzclub Reduta 1993
DYEAR=1993
DGENRE=Jazz
TTITLE0=Dinah
TTITLE1=Savoy Blues
TTITLE2=Muskrat Ramble
TTITLE3=Black And White
TTITLE4=When My Dreamboat Comes Home
TTITLE5=Heebie Jeebies
TTITLE6=Willie The Weeper
TTITLE7=Do You Know What It Means To Miss New Orleans
TTITLE8=Panama Rag
TTITLE9=Tin Roof Blues
TTITLE10=Nobody Knows You When You're Down And Out
TTITLE11=Boogie Woogie In C
TTITLE12=Blue Turning Gray Over You
TTITLE13=Royal Garden Blues
TTITLE14=Ain't Misbehavin'
TTITLE15=All Of Me
TTITLE16=High Society
EXTD=YEAR: 1993
EXTT0=
EXTT1=
EXTT2=
EXTT3=
EXTT4=
EXTT5=
EXTT6=
EXTT7=
EXTT8=
EXTT9=
EXTT10=
EXTT11=
EXTT12=
EXTT13=
EXTT14=
EXTT15=
EXTT16=
PLAYORDER=
